<?xml version="1.0" standalone="no"?>
<!DOCTYPE svg PUBLIC "-//W3C//DTD SVG 20010904//EN"
 "http://www.w3.org/TR/2001/REC-SVG-20010904/DTD/svg10.dtd">
<svg version="1.0" xmlns="http://www.w3.org/2000/svg"
 width="927.000000pt" height="425.000000pt" viewBox="0 0 927.000000 425.000000"
 preserveAspectRatio="xMidYMid meet">

<g transform="translate(0.000000,425.000000) scale(0.100000,-0.100000)"
fill="#000000" stroke="none">
<path d="M570 2983 c-82 -15 -101 -25 -128 -65 l-27 -42 -5 -1030 -5 -1031
-57 -3 c-44 -2 -58 -7 -58 -18 0 -9 -9 -18 -19 -21 -24 -6 -36 -32 -18 -39 7
-2 86 -3 177 -2 124 2 164 6 168 16 2 7 -5 16 -17 19 -11 3 -23 14 -26 24 -5
15 -16 19 -49 19 -41 0 -44 2 -50 31 -3 17 -6 468 -6 1002 0 715 3 980 12
1009 6 22 23 48 36 59 24 18 47 19 647 19 588 0 623 -1 638 -18 9 -10 20 -33
23 -50 6 -31 0 -39 -107 -147 -62 -63 -110 -117 -107 -121 7 -7 498 -8 505 -1
2 3 -50 60 -116 128 -88 91 -121 131 -121 149 0 32 -32 85 -62 102 -18 10
-146 13 -613 14 -324 1 -601 0 -615 -3z"/>
<path d="M2737 2883 c-4 -3 -7 -30 -7 -59 0 -43 -3 -53 -20 -57 -11 -3 -20
-10 -20 -17 0 -7 9 -14 20 -17 17 -4 20 -14 20 -54 l0 -48 -87 -3 -88 -3 0
-875 0 -875 88 -3 87 -3 0 -79 0 -80 3102 2 3103 3 -3 77 -4 77 29 3 28 3 0
165 0 164 -25 6 -25 6 -3 191 c-2 184 -2 193 18 203 19 10 20 20 20 171 0 153
-1 161 -20 166 -20 5 -20 12 -18 172 l3 166 28 3 27 3 0 169 0 169 -27 3 c-26
3 -28 7 -31 51 -3 42 -1 47 17 47 28 0 28 36 1 43 -17 4 -20 14 -20 61 l0 56
-3093 0 c-1702 0 -3097 -3 -3100 -7z m5053 -73 l0 -40 -2507 2 -2508 3 -3 38
-3 37 2510 0 2511 0 0 -40z m0 -130 l0 -50 -2507 2 -2508 3 -3 48 -3 47 2510
0 2511 0 0 -50z m-4045 -930 l0 -835 -575 0 -575 0 -3 825 c-1 454 0 831 3
838 3 10 124 12 577 10 l573 -3 0 -835z m1280 0 l0 -835 -575 0 -575 0 -3 838
-2 837 577 -2 578 -3 0 -835z m1283 3 l-3 -838 -575 0 -575 0 -3 825 c-1 454
0 831 3 838 3 9 129 12 580 12 l575 0 -2 -837z m160 0 l-3 -838 -52 -3 -53 -3
0 840 0 841 55 0 55 0 -2 -837z m1362 -3 l0 -840 -95 0 -94 0 -3 147 -3 148
-360 5 c-198 3 -361 7 -362 8 -5 4 -1 1357 3 1364 3 4 210 8 460 8 l454 0 0
-840z m-970 788 l0 -43 -127 3 c-177 4 -175 6 -171 -71 l3 -62 148 0 147 0 0
-35 0 -35 -127 3 c-177 4 -175 6 -171 -71 l3 -62 148 -3 147 -3 0 -29 0 -30
-139 0 c-161 0 -164 -1 -159 -82 l3 -53 148 -3 147 -3 0 -29 0 -29 -147 -3
-148 -3 0 -65 0 -65 148 -3 147 -3 0 -29 0 -30 -127 3 c-170 5 -173 3 -173
-72 0 -33 5 -63 10 -66 6 -4 74 -6 150 -6 l140 1 0 -29 0 -29 -141 -1 c-77 0
-144 -3 -150 -6 -12 -8 -12 -122 0 -129 5 -4 73 -7 150 -7 l141 -2 0 -28 0
-28 -147 -3 -148 -3 -3 -59 c-2 -48 0 -61 14 -69 9 -5 73 -8 143 -7 69 1 147
2 172 1 25 -1 192 -3 370 -4 l324 -2 3 -30 3 -30 -153 0 -153 0 -3 -53 c-5
-83 -2 -84 165 -80 143 3 143 3 143 -19 l0 -23 -522 0 -523 0 0 830 0 830 158
0 157 0 0 -42z m2080 -78 l0 -120 -362 -2 -363 -3 0 -215 0 -215 355 -5 c195
-3 354 -8 353 -12 -2 -5 -3 -58 -3 -119 l0 -111 -37 3 c-30 2 -46 11 -75 43
-33 35 -38 47 -38 88 l0 48 -72 2 c-139 2 -293 -4 -304 -13 -8 -7 -12 -67 -5
-101 0 -5 16 -8 34 -8 23 0 41 -8 57 -25 30 -32 24 -34 -135 -37 l-130 -3 -3
-243 c-2 -194 0 -244 11 -248 7 -2 172 -6 366 -7 l353 -2 1 -118 2 -117 -482
0 -483 0 0 830 0 830 480 0 480 0 0 -120z m-2132 -32 c3 -16 -6 -18 -92 -18
-90 0 -96 1 -96 20 0 20 5 21 92 18 79 -3 93 -6 96 -20z m-8 -198 c0 -6 -35
-10 -85 -10 -50 0 -85 4 -85 10 0 6 35 10 85 10 50 0 85 -4 85 -10z m15 -200
c0 -12 -18 -16 -94 -18 -92 -3 -120 5 -106 27 4 8 40 11 103 9 78 -2 97 -6 97
-18z m1918 -327 c31 -37 57 -73 57 -80 0 -10 -21 -13 -79 -13 l-79 0 -66 72
c-36 39 -63 75 -60 80 3 4 42 8 87 8 l82 0 58 -67z m-1918 -73 c0 -12 -18 -16
-94 -18 -92 -3 -120 5 -106 27 4 8 40 11 103 9 78 -2 97 -6 97 -18z m-15 -200
c0 -6 -35 -10 -85 -10 -50 0 -85 4 -85 10 0 6 35 10 85 10 50 0 85 -4 85 -10z
m0 -200 c0 -6 -35 -10 -85 -10 -50 0 -85 4 -85 10 0 6 35 10 85 10 50 0 85 -4
85 -10z m990 -420 l0 -60 -2507 2 -2508 3 -3 58 -3 57 2511 0 2510 0 0 -60z"/>
<path d="M2865 2378 c-3 -7 -4 -294 -3 -638 l3 -625 300 0 300 0 3 638 2 637
-300 0 c-231 0 -302 -3 -305 -12z m180 -133 c0 -25 -4 -30 -24 -30 -32 0 -49
28 -31 50 7 9 23 15 34 13 16 -2 21 -10 21 -33z m172 9 c10 -26 -14 -41 -35
-21 -15 16 -15 19 -2 27 21 14 30 12 37 -6z m193 -184 c17 -32 3 -60 -30 -60
-37 0 -50 33 -24 61 22 25 41 24 54 -1z m-185 -25 c0 -25 -4 -30 -24 -30 -13
0 -29 8 -35 18 -9 15 -7 21 9 33 30 22 50 13 50 -21z m-188 9 c8 -21 -13 -42
-28 -27 -13 13 -5 43 11 43 6 0 13 -7 17 -16z m7 -180 c32 -31 6 -71 -39 -60
-29 7 -32 31 -8 58 20 22 27 22 47 2z m176 -35 c0 -22 -4 -23 -31 -9 -24 13
-25 27 -1 33 24 5 32 -1 32 -24z m185 -194 c0 -35 -31 -47 -51 -20 -18 25 0
57 29 53 17 -2 22 -10 22 -33z m-185 0 c0 -21 -19 -28 -36 -14 -14 12 -14 14
2 26 19 14 34 9 34 -12z m189 -177 c16 -44 -26 -77 -57 -46 -16 16 -15 33 4
52 22 22 43 20 53 -6z m-361 -19 c4 -31 -19 -44 -49 -29 -22 12 -24 31 -7 48
21 21 53 10 56 -19z m170 -7 c4 -25 -19 -30 -37 -9 -8 10 -7 17 1 25 17 17 32
10 36 -16z m14 -177 c21 -46 -38 -76 -66 -33 -8 13 -6 22 8 37 25 28 44 26 58
-4z m-195 -11 c9 -23 -13 -40 -32 -24 -12 10 -13 16 -4 26 15 18 28 18 36 -2z"/>
<path d="M4150 1750 l0 -640 298 2 297 3 3 638 2 637 -300 0 -300 0 0 -640z
m540 526 c6 -8 10 -25 8 -38 -2 -18 -9 -23 -32 -23 -17 0 -33 7 -40 18 -9 15
-7 22 13 38 28 23 35 23 51 5z m-175 -15 c9 -28 -5 -51 -30 -51 -34 0 -48 22
-29 48 19 27 51 29 59 3z m-5 -185 c6 -8 10 -25 8 -38 -2 -18 -9 -23 -32 -23
-17 0 -33 7 -40 18 -9 15 -7 22 13 38 28 23 35 23 51 5z m-180 -25 c0 -14 -23
-29 -36 -24 -17 6 -18 30 -1 36 14 5 37 -2 37 -12z m0 -181 c6 -12 8 -30 5
-41 -8 -25 -53 -23 -69 4 -9 15 -7 22 13 38 29 24 38 24 51 -1z m185 -10 c8
-25 -10 -50 -36 -50 -24 0 -32 16 -25 46 8 31 52 34 61 4z m162 -24 c-4 -9
-13 -13 -22 -10 -18 7 -20 31 -2 37 17 6 31 -9 24 -27z m-167 -161 c7 -9 10
-25 6 -41 -5 -20 -12 -25 -33 -22 -14 2 -31 11 -37 21 -9 15 -7 22 13 38 28
23 35 24 51 4z m167 -39 c-4 -9 -13 -13 -22 -10 -18 7 -20 31 -2 37 17 6 31
-9 24 -27z m-347 -166 c6 -12 8 -30 5 -41 -8 -25 -53 -23 -69 4 -9 15 -7 22
13 38 29 24 38 24 51 -1z m183 -10 c7 -29 -15 -54 -41 -46 -22 7 -27 22 -16
50 9 23 51 20 57 -4z m177 -184 c6 -8 10 -25 8 -38 -2 -18 -9 -23 -32 -23 -17
0 -33 7 -40 18 -9 15 -7 22 13 38 28 23 35 23 51 5z m-371 -20 c9 -10 8 -16
-3 -26 -19 -15 -36 -5 -36 21 0 22 22 25 39 5z m178 3 c14 -14 6 -39 -12 -39
-18 0 -28 17 -21 35 6 18 18 19 33 4z"/>
<path d="M5270 1750 l0 -740 463 2 462 3 0 735 0 735 -462 3 -463 2 0 -740z
m627 555 c48 -20 69 -40 105 -94 23 -37 28 -56 28 -107 0 -79 -19 -123 -72
-169 -80 -68 -163 -84 -244 -44 -218 105 -151 429 88 429 32 0 75 -7 95 -15z
m196 -459 c24 -18 21 -26 -8 -26 -18 0 -25 5 -25 20 0 23 8 25 33 6z m0 -140
c24 -18 21 -26 -8 -26 -18 0 -25 5 -25 20 0 23 8 25 33 6z m-185 -65 c79 -41
122 -111 122 -202 0 -77 -16 -114 -67 -160 -86 -74 -174 -88 -259 -39 -94 53
-131 124 -121 228 7 64 54 136 113 169 52 30 158 32 212 4z"/>
<path d="M5750 2238 c0 -37 -6 -60 -20 -78 -11 -14 -20 -40 -20 -60 0 -20 9
-46 20 -60 14 -17 20 -41 20 -77 l0 -53 50 0 c28 0 50 3 51 8 0 4 1 28 2 54 2
32 9 52 20 60 10 7 20 30 24 51 5 31 1 45 -18 70 -17 23 -24 46 -25 82 l0 50
-52 3 -52 3 0 -53z m88 -100 c7 -7 12 -24 12 -38 0 -31 -17 -50 -45 -50 -40 0
-57 39 -35 81 12 21 50 25 68 7z"/>
<path d="M5666 1569 c-14 -17 -26 -34 -26 -38 0 -4 16 -24 35 -44 19 -20 35
-46 35 -59 1 -39 44 -78 87 -78 11 0 37 -18 58 -40 21 -22 45 -40 52 -40 7 0
24 17 38 37 l25 37 -35 36 c-21 22 -35 46 -35 61 0 24 -23 67 -44 81 -6 4 -23
8 -38 8 -18 0 -42 13 -67 35 -21 19 -43 35 -49 35 -6 0 -22 -14 -36 -31z m172
-91 c21 -21 15 -67 -12 -79 -48 -22 -82 22 -56 72 12 21 50 25 68 7z"/>
<path d="M6567 1094 c-4 -4 -7 -33 -7 -65 0 -43 4 -58 16 -63 24 -9 267 -7
282 3 9 5 12 26 10 67 l-3 59 -146 3 c-80 1 -148 -1 -152 -4z m241 -61 c-3
-16 -15 -18 -93 -18 -78 0 -90 2 -93 18 -3 15 7 17 93 17 86 0 96 -2 93 -17z"/>
<path d="M6924 1087 c-3 -8 -4 -39 -2 -68 l3 -54 139 -3 c96 -2 143 1 153 9
10 9 13 29 11 68 l-3 56 -148 3 c-119 2 -148 0 -153 -11z m236 -57 c0 -6 -35
-10 -85 -10 -50 0 -85 4 -85 10 0 6 35 10 85 10 50 0 85 -4 85 -10z"/>
<path d="M864 2530 c-33 -21 -44 -43 -65 -120 -6 -25 -20 -63 -30 -86 -38 -83
-14 -181 50 -197 l34 -8 -33 -22 c-18 -12 -55 -42 -82 -67 -39 -36 -50 -54
-56 -90 -7 -42 -10 -46 -46 -55 -22 -5 -54 -23 -73 -41 -30 -28 -33 -37 -33
-87 0 -64 20 -95 80 -125 38 -18 48 -42 32 -76 -36 -78 -40 -108 -20 -151 9
-19 9 -28 0 -37 -7 -7 -12 -31 -12 -54 0 -55 29 -77 131 -100 41 -9 77 -19 81
-23 3 -3 8 -37 9 -76 1 -38 9 -82 17 -96 13 -22 12 -29 -1 -56 -16 -29 -43
-45 -99 -57 -14 -3 -47 -26 -72 -51 -40 -38 -46 -50 -46 -85 0 -29 4 -40 13
-38 6 3 13 13 15 24 8 52 15 65 49 89 57 38 67 34 59 -25 -4 -30 -2 -58 4 -70
12 -22 49 -27 68 -8 8 8 15 8 25 -1 21 -17 173 -27 190 -12 11 9 17 8 27 -4 8
-10 30 -15 66 -15 47 0 54 2 54 20 0 19 7 20 189 20 180 0 189 -1 194 -20 5
-18 14 -20 102 -20 88 0 97 2 102 20 5 19 14 20 150 20 138 0 145 -1 150 -20
5 -18 12 -21 61 -18 l56 3 -3 67 c-2 66 -2 67 26 70 l28 3 3 289 c1 193 6 294
13 303 6 7 24 13 40 13 28 0 29 2 29 50 0 48 -1 50 -29 50 -16 0 -34 6 -40 13
-7 9 -12 110 -13 303 l-3 289 -403 3 -403 2 -76 -157 c-41 -87 -90 -191 -109
-230 -18 -40 -38 -73 -44 -73 -6 0 -25 10 -43 22 -18 13 -34 24 -37 26 -2 2
-3 22 -3 45 3 69 -37 168 -89 224 l-30 31 38 20 c49 25 75 53 108 116 29 54
29 57 19 55 -31 -5 -44 3 -41 24 4 31 45 36 56 6 l9 -23 5 22 c4 12 2 25 -3
28 -5 3 -9 27 -9 53 0 61 -46 135 -105 168 -55 31 -185 33 -231 3z m156 -75
c-14 -17 -30 -20 -30 -6 0 5 8 12 18 14 9 3 19 5 21 6 2 0 -2 -6 -9 -14z m95
-35 c3 -6 10 -32 14 -59 6 -39 5 -50 -9 -58 -22 -14 -55 8 -38 25 9 9 8 16 -4
28 -20 21 -45 9 -27 -12 15 -18 12 -21 -33 -29 -52 -10 -49 4 12 65 49 49 73
60 85 40z m-47 -122 c7 -7 12 -20 12 -30 0 -12 5 -15 16 -11 18 7 34 -12 34
-39 0 -13 -8 -18 -26 -18 -20 0 -24 -3 -16 -13 6 -7 7 -18 3 -25 -5 -9 -13 -7
-29 8 -22 21 -47 26 -56 12 -3 -5 10 -16 29 -25 24 -11 33 -21 29 -32 -15 -38
-69 -7 -151 88 -37 42 -41 57 -17 57 14 0 14 3 4 15 -11 13 -8 14 21 9 70 -11
78 -14 82 -32 4 -14 5 -13 6 4 1 22 19 44 36 44 6 0 16 -5 23 -12z m592 -448
l0 -280 -214 0 c-120 0 -217 4 -221 9 -3 5 18 58 46 118 142 299 201 418 212
425 7 4 49 8 95 8 l82 0 0 -280z m-704 249 c18 -17 21 -26 13 -40 -14 -27 -38
-23 -50 8 -10 26 -6 53 8 53 3 0 17 -10 29 -21z m-71 -71 c7 -18 11 -37 8 -41
-6 -10 -33 39 -33 59 0 23 10 16 25 -18z m-54 -85 c23 -25 49 -79 49 -99 0
-22 -29 -43 -58 -44 -18 0 -27 10 -42 45 -31 71 -35 111 -14 123 20 11 41 4
65 -25z m164 1 c6 0 16 -2 23 -2 21 -3 16 -150 -7 -192 -10 -19 -24 -35 -31
-35 -19 0 -51 67 -45 93 3 13 2 29 -3 35 -5 7 -15 27 -22 45 -12 30 -11 35 10
57 19 21 26 22 44 13 11 -7 26 -13 31 -14z m98 -107 c-3 -5 -9 -3 -14 4 -4 7
-5 17 -2 22 3 5 9 3 14 -4 4 -7 5 -17 2 -22z m-337 -37 c9 -21 22 -41 29 -44
16 -6 55 -90 55 -119 0 -18 -5 -19 -51 -15 -27 3 -54 9 -59 14 -8 9 -14 89
-11 172 1 51 15 48 37 -8z m156 -75 c24 -50 41 -57 151 -70 96 -12 64 -25 -45
-19 -57 3 -108 7 -115 9 -15 5 -55 95 -49 112 11 26 37 12 58 -32z m201 11
c31 -40 33 -46 12 -46 -22 0 -55 37 -55 60 0 29 11 25 43 -14z m57 -106 c0 -5
-7 -7 -15 -4 -8 4 -15 8 -15 10 0 2 7 4 15 4 8 0 15 -4 15 -10z m-45 -50 c0
-19 -70 -26 -91 -10 -23 20 -5 31 44 28 34 -2 47 -7 47 -18z m-293 -17 l77 -5
3 -57 3 -56 48 -3 47 -3 0 -206 0 -205 -31 6 c-17 3 -42 6 -56 6 l-24 0 26 43
c30 53 48 136 33 155 -6 7 -27 20 -47 29 -48 22 -213 131 -228 151 -18 22 -16
74 3 123 15 37 19 40 43 34 14 -4 61 -9 103 -12z m768 -53 c0 -20 -7 -20 -307
-20 -170 0 -314 4 -322 9 -41 26 8 31 315 31 307 0 314 0 314 -20z m60 -340
l0 -280 -284 0 c-156 0 -291 3 -300 6 -14 5 -16 39 -16 273 0 147 3 271 7 274
3 4 138 7 300 7 l293 0 0 -280z m-757 -225 c-10 -14 -21 -25 -25 -25 -21 -1
-5 -51 22 -73 36 -30 37 -37 9 -37 -23 0 -89 37 -89 49 0 5 11 20 24 34 14 15
32 40 42 56 10 17 21 28 26 25 4 -3 0 -16 -9 -29z m121 13 c8 -14 7 -21 -5
-33 -12 -12 -21 -13 -47 -4 -38 13 -40 22 -9 44 26 18 46 16 61 -7z m-11 -88
c20 -11 43 -20 51 -20 26 0 37 -66 12 -76 -18 -7 -81 33 -125 80 l-35 36 30 0
c16 0 46 -9 67 -20z m647 -70 c0 -36 -4 -50 -14 -50 -7 0 -16 9 -19 20 -5 19
-14 20 -235 20 -225 0 -230 0 -235 -21 -8 -31 -31 -18 -35 20 -6 64 -18 61
273 61 l265 0 0 -50z"/>
<path d="M1033 2233 c9 -2 25 -2 35 0 9 3 1 5 -18 5 -19 0 -27 -2 -17 -5z"/>
</g>
</svg>
